<svg xmlns="http://www.w3.org/2000/svg" viewBox="0 0 192 48"><path fill="#fff" d="M96.7 36.4H59.2c-1.1 0-2 .8-2 1.8s.9 1.8 2 1.8h37.5v-3.6zM106.8 36.8c0-.3-.1-.7-.5-.7s-.8.1-1.2.2l-.7 3c.4 0 .8 0 1.2-.1.8-.6 1.3-1.5 1.2-2.4zm1.1 0c.1 1.8-1.3 3.3-3 3.4-.6 0-1.2-.2-1.7-.5l1.6-6.7 1.2-.2-.5 2.4c.3-.1.7-.2 1-.2 1.1.1 1.4 1 1.4 1.8M109.8 35.2l.5 3.6c.3-.5.6-1 .8-1.5l.8-2.1h1.2s-1 2.5-1.7 3.8c-.6 1-1.4 1.9-2.5 2.5-.6.2-1.2.1-1.7-.1l.4-.9c.2.1.4.2.6.2.8 0 1.4-.9 1.4-.9-.2-.8-.4-1.5-.5-2.3-.2-1.3-.3-2.4-.3-2.4l1 .1zM123.3 40.5l-2.5-3.8c.7-.8 2.4-1.5 3.1-.6 1.2 1.6 1.3 1.7 1.5 1.4.7-1.2 3.4-6 3.4-6.1H121c-.8 0-1.7.9-1.7 1.9v7.8c0 .8.8 1.9 1.7 1.9h8.5c1 0 1.7-.8 1.7-1.7v-7.7c-1.6 2.8-3.7 6.9-3.8 7-.9 1.5-3 1.5-4.1-.1zM137.7 34.6c0-1.7 4-.6 4-.6 0 .1.8-1.8.8-1.8-.8-.5-7.2-2.2-7.4 2.6-.1 3.5 5.5 2.7 5.3 4.9-.1 2-4.6.5-4.6.5l-.9 1.9c.3.2 8 2.8 8.1-2.4.1-4-5.3-2.9-5.3-5.1zM174.8 39.4v-2.8h2.8v-2.1h-2.8v-3.2l-1.2.2c-.7.1-1.2.7-1.2 1.4v6.5c0 1.1.2 3.8 3.3 3.5.5-.1 2.2-.4 2.5-.5l-.6-2c.1 0-2.8 1.2-2.8-1zM153.7 30.1c-.7.1-1.2.7-1.2 1.4v11.6h2.4V30l-1.2.1zM179.6 35.3v7.8h2.2v-6.2c1.2-.3 2.3.1 2.5.1l.4-1.9c-.1-.2-2.8-.8-5.1.2zM188.8 34.7c-.8.1-2.6.4-2.7.4l.2 1.8c.4 0 1.7-.3 2.3-.3 1.6-.1 1.5 1.5 1.5 1.5-4.2-.8-4.3 1.9-4.3 2.3.1 2.7 2.6 2.6 3.1 2.6.8 0 2.9-.3 3.2-.4v-4.7c-.1-.5.1-3.4-3.3-3.2zm1.2 6.5c-.1 0-2.4.4-2.3-.9.1-1 2.2-.8 2.3-.8v1.7zM167.1 38.9c0-.6.3-3 3.7-1.9l.5-1.7c-4-1.7-6.7.7-6.7 3.6 0 2.8 2.2 5.2 6.8 3.6l-.3-1.8c-3.7 1.2-4-1.1-4-1.8zM159.8 34.7c-3.6 0-3.8 3.6-3.8 4.3.2 5.4 5.9 3.9 7 3.6l-.3-1.8c-.9.2-4.4.8-4.4-1.1h5.1c.1-.8.2-5-3.6-5zm-1.5 3.4c0-.2.2-1.5 1.5-1.5.3 0 1.3.1 1.5 1.5h-3zM147.8 34.7c-3.6 0-3.8 3.6-3.8 4.3.2 5.4 5.9 3.9 7 3.6l-.3-1.8c-.9.2-4.4.8-4.4-1.1h5.1c.1-.8.2-5-3.6-5zm-1.5 3.4c0-.2.2-1.5 1.5-1.5.3 0 1.3.1 1.5 1.5h-3zM69.9 8.1l-.7 3.2h-4.4L62 24.9h-3.3l2.9-13.6h-4.4l.7-3.2h12zM77.4 19.4c-.2.9-.3 1.8-.2 2.8.1.9.2 1.8.5 2.5l-2.9.5c-.1-.2-.2-.4-.2-.6-.1-.2-.1-.4-.2-.6-.4.4-.8.7-1.3.9s-1 .4-1.6.4c-.7 0-1.3-.1-1.8-.4-.5-.3-.9-.7-1.2-1.1-.3-.5-.6-1-.7-1.7a10.07 10.07 0 01.3-5.1c.4-1 .8-1.8 1.5-2.6a6.26 6.26 0 014.9-2.3h.7c.3 0 .7.1 1.1.1s.8.1 1.3.3c.5.1.9.3 1.3.5l-1.5 6.4zm-2.2-4.5c-.2 0-.4-.1-.5-.1h-.5c-.5 0-.9.1-1.4.4-.4.3-.8.6-1.1 1.1-.3.4-.6 1-.7 1.5a5.66 5.66 0 000 3.6c.2.5.6.7 1.3.7.3 0 .6-.1.9-.2.3-.1.5-.4.8-.7 0-.4.1-.8.1-1.3.1-.4.1-.8.2-1.2l.9-3.8zM88.1 15.3c-.3-.1-.6-.2-.8-.2-.3-.1-.7-.1-1.2-.1-.2 0-.4 0-.7.1-.2 0-.4.1-.6.1L82.7 25h-3.2l2.6-12c.6-.2 1.3-.4 2.1-.6a10.32 10.32 0 013.8-.2c.4.1.8.2 1.1.4l-1 2.7zM91.4 24.9h-3.2l2.7-12.7h3.2l-2.7 12.7zM93 10.6c-.4 0-.8-.2-1.2-.4-.4-.3-.5-.8-.5-1.4 0-.3.1-.7.2-1s.3-.6.5-.8c.2-.2.4-.4.7-.5.3-.1.5-.2.8-.2.4 0 .8.1 1.2.4.4.3.5.8.5 1.4 0 .3-.1.7-.2 1s-.3.6-.5.8-.4.4-.7.5c-.2.1-.5.2-.8.2zM103.1 6.1c.6 0 1.2.1 1.7.2.5.2.8.3 1.1.4l-1.1 2.8c-.3-.1-.6-.3-.9-.3-.3-.1-.6-.1-.9-.1-.8 0-1.4.2-1.7.7-.4.5-.6 1-.8 1.7l-.1.6h3.8l-.6 2.9h-3.8l-1.3 6.2c-.5 2.3-1 4.1-1.6 5.4s-1.2 2.2-1.9 2.8l-3-.4c.4-.4.7-.9 1-1.4.3-.6.6-1.2.8-1.8.3-.6.5-1.3.6-1.9s.3-1.3.4-1.8L97 11.6c.4-1.7 1-3 1.9-4 1.2-1 2.5-1.5 4.2-1.5zM114.3 19.4c-.2.9-.3 1.8-.2 2.8.1.9.2 1.8.5 2.5l-2.9.5c-.1-.2-.2-.4-.2-.6s-.1-.4-.2-.6c-.4.4-.8.7-1.3.9-.5.2-1 .4-1.6.4-.7 0-1.3-.1-1.8-.4-.5-.3-.9-.7-1.2-1.1-.3-.5-.6-1-.7-1.7a10.07 10.07 0 01.3-5.1c.4-1 .8-1.8 1.5-2.6a6.26 6.26 0 014.9-2.3h.7c.3 0 .7.1 1.1.1s.8.1 1.3.3c.5.1.9.3 1.3.5l-1.5 6.4zm-2.2-4.5c-.2 0-.4-.1-.5-.1h-.5c-.5 0-.9.1-1.4.4-.4.3-.8.6-1.1 1.1-.3.4-.6 1-.7 1.5a5.66 5.66 0 000 3.6c.2.5.6.7 1.3.7.3 0 .6-.1.9-.2.3-.1.5-.4.8-.7 0-.4.1-.8.1-1.3.1-.4.1-.8.2-1.2l.9-3.8zM121 25.1c-1 0-1.8-.2-2.4-.4-.6-.3-1-.7-1.2-1.2-.3-.5-.4-1.1-.4-1.8s.1-1.4.3-2.1L120 6.7l3.3-.6-3 13.9c-.1.3-.1.6-.1.8 0 .2 0 .5.1.6.1.2.2.3.4.4.2.1.5.2.9.2l-.6 3.1zM134.9 12.2l-1.5 7.2c-.2.9-.3 1.8-.2 2.8.1.9.3 1.8.5 2.5l-2.9.5c-.2-.4-.3-.7-.5-1.2-.4.4-.8.7-1.4.9-.5.2-1.1.4-1.7.4-.8 0-1.5-.2-2-.5s-.9-.8-1.2-1.4c-.3-.6-.4-1.2-.4-2 0-.7.1-1.5.2-2.3l1.5-6.9h3.2l-1.4 6.8c-.1.4-.1.7-.2 1.1-.1.4-.1.7 0 1 0 .3.2.6.3.8.2.2.5.3.8.3.3 0 .6-.1.9-.2.3-.1.6-.4.9-.7 0-.4.1-.8.1-1.3.1-.4.1-.8.2-1.2l1.4-6.6h3.4zM146.5 14.6l-1.3 1.3c-.5.6-1.1 1.2-1.7 1.8-.6.7-1.2 1.4-1.9 2.1l-1.8 2.1h5.2l-.6 2.9h-9.1l.5-2.1c.4-.6.9-1.2 1.4-1.9.5-.7 1.1-1.4 1.7-2.1l1.7-2c.6-.6 1.1-1.2 1.6-1.7h-4.6l.6-2.9h8.7l-.4 2.5zM154.4 11.9c.6 0 1.1.1 1.6.3.4.2.8.5 1.1.8.3.4.5.8.6 1.3.1.5.2 1 .2 1.6 0 .7-.1 1.3-.2 2l-1.5 6.9H153l1.4-6.7c.1-.3.1-.6.2-.9 0-.3.1-.6.1-.9 0-.4-.1-.8-.3-1.1-.2-.3-.6-.4-1.1-.4h-.7c-.2 0-.4.1-.6.1l-2.1 9.8h-3.2l3.9-18.2 3.3-.6-1.3 6.1c.3-.1.6-.1.9-.2.4.2.6.1.9.1zM164 25.2a4.21 4.21 0 01-3.4-1.5c-.4-.5-.6-1-.8-1.7-.2-.6-.3-1.3-.3-2.1a9.67 9.67 0 011.6-5.5c.5-.8 1.2-1.4 2-1.9s1.7-.7 2.7-.7c.7 0 1.4.1 2 .4.6.3 1 .6 1.4 1.1.4.5.6 1 .8 1.7.2.6.3 1.3.3 2.1a9.67 9.67 0 01-1.6 5.5c-.5.8-1.2 1.4-2 1.9-.7.5-1.6.7-2.7.7zm1.6-10.3c-.5 0-.9.2-1.2.5-.4.3-.7.7-.9 1.2-.2.5-.4 1-.5 1.5-.1.6-.2 1.1-.2 1.6 0 .8.1 1.5.3 1.9.2.4.6.7 1.2.7.5 0 .9-.2 1.2-.5.4-.3.7-.7.9-1.2.2-.5.4-1 .5-1.5.1-.6.2-1.1.2-1.6 0-.8-.1-1.5-.3-1.9s-.6-.7-1.2-.7zM179.9 15.3c-.3-.1-.6-.2-.8-.2-.3-.1-.7-.1-1.2-.1-.2 0-.4 0-.7.1-.2 0-.4.1-.6.1l-2.1 9.8h-3.2l2.6-12c.6-.2 1.3-.4 2.1-.6a10.32 10.32 0 013.8-.2c.4.1.8.2 1.1.4l-1 2.7zM190.6 19.4c-.2.9-.3 1.8-.2 2.8.1.9.2 1.8.5 2.5l-2.9.5c-.1-.2-.2-.4-.2-.6s-.1-.4-.2-.6c-.4.4-.8.7-1.3.9s-1 .4-1.6.4c-.7 0-1.3-.1-1.8-.4-.5-.3-.9-.7-1.2-1.1-.3-.5-.6-1-.7-1.7a10.07 10.07 0 01.3-5.1c.4-1 .8-1.8 1.5-2.6a6.26 6.26 0 014.9-2.3h.7c.3 0 .7.1 1.1.1s.8.1 1.3.3c.5.1.9.3 1.3.5l-1.5 6.4zm-2.2-4.5c-.2 0-.4-.1-.5-.1h-.5c-.5 0-.9.1-1.4.4-.4.3-.8.6-1.1 1.1-.3.4-.6 1-.7 1.5a5.66 5.66 0 000 3.6c.2.5.6.7 1.3.7.3 0 .6-.1.9-.2.3-.1.5-.4.8-.7 0-.4.1-.8.1-1.3.1-.4.1-.8.2-1.2l.9-3.8zM41.4.1H7.1C3.7.1-.1 3.6 0 7.8v32.3c0 3.4 3.3 7.7 7.2 7.7h35.2c3.9 0 7.1-3.4 7.1-7.2l.1-32.1C49.4-1.1 41.3.3 41.4.1zM13.9 5.8l.1-.1c.7-.6 1.8-.4 2.3.3l.1.1 1.4 3.3c.3.5.2 1.2-.3 1.5-.5.3-1.2.2-1.5-.3L13.5 8c-.6-.7-.4-1.7.4-2.2zm-4.7 5.6s0-.1.1-.1c.4-.8 1.3-1.2 2.2-.8 0 0 .1 0 .1.1l2.8 2.3c.5.3.7 1 .4 1.5-.3.5-1 .7-1.5.4l-3.4-1.1a1.8 1.8 0 01-.7-2.3zm-1.7 7.1c0-.9.8-1.7 1.8-1.7l3.5.9c.6 0 1.1.6 1 1.2 0 .6-.6 1.1-1.2 1l-3.6.5c-.9-.1-1.6-1-1.5-1.9zm26 15.2c-.1 1.8-.1 4.5 0 5.7 0 .9-.6 1.7-1.4 2.1l-3.4 1.8c-.1.1-.2.1-.2.2-.4.8-1 1.4-1.9 1.6-.8.3-1.7.4-2.6.3a4.2 4.2 0 01-2.8-1.4c-.2-.6-.8-.8-1.3-1.1-1-.6-2.1-1.1-3.1-1.8-.6-.4-1-1.1-.9-1.8v-5.7L10.7 26h27.8l-5 7.7zm-9.2-13.4V3.1c9.5 0 17.2 7.7 17.2 17.2H24.3z"/></svg>